<svg width="18" height="18" viewBox="0 0 18 18" fill="none" xmlns="http://www.w3.org/2000/svg">
<path d="M6.93852 0.705054C7.62667 0.288763 8.27192 0.0390625 9.00008 0.0390625C9.72825 0.0390625 10.3734 0.288763 11.0616 0.705054C11.7281 1.10825 12.4898 1.70306 13.446 2.44978L14.4321 3.21975C15.5787 4.11457 16.3199 4.69295 16.723 5.52036C17.1259 6.34741 17.1256 7.28911 17.1251 8.74731V10.6916C17.1251 12.2295 17.1251 13.4471 16.9975 14.3998C16.8662 15.38 16.5897 16.1731 15.9666 16.7988C14.9747 17.7947 14.1716 17.9263 12.1485 17.9556C11.9812 17.9581 11.8198 17.8933 11.7007 17.7759C11.5815 17.6584 11.5144 17.4981 11.5144 17.3307V14.0021C11.5144 13.6053 11.5141 13.339 11.5 13.1327C11.5 12.441 10.8893 12.1416 10.5087 12.1416C10.3026 12.1275 9.39692 12.1271 9.00008 12.1271C8.39483 12.1271 7.71183 12.1275 7.50558 12.1416C7.12493 12.1416 6.51441 12.4372 6.51441 13.1327C6.50034 13.339 6.5 13.6053 6.5 14.0021V17.3307C6.5 17.4981 6.4329 17.6584 6.31372 17.7759C6.19454 17.8933 6.03324 17.9581 5.86592 17.9556C3.84285 17.9263 3.02547 17.7947 2.03355 16.7988C1.41036 16.1731 1.13389 15.38 1.00263 14.3998C0.87504 13.447 0.875049 12.2294 0.875065 10.6916V8.90123L0.875032 8.74731C0.874557 7.28912 0.874249 6.34741 1.27713 5.52036C1.6802 4.69295 2.42137 4.11457 3.56803 3.21975L4.55411 2.44978C5.51033 1.70306 6.27204 1.10825 6.93852 0.705054Z" fill="#9AA1B3"/>
</svg>
